<?xml version="1.0" standalone="no"?>
<!DOCTYPE svg PUBLIC "-//W3C//DTD SVG 20010904//EN"
 "http://www.w3.org/TR/2001/REC-SVG-20010904/DTD/svg10.dtd">
<svg version="1.0" xmlns="http://www.w3.org/2000/svg"
 width="524.000000pt" height="524.000000pt" viewBox="0 0 524.000000 524.000000"
 preserveAspectRatio="xMidYMid meet">
<metadata>
Created by potrace 1.14, written by Peter Selinger 2001-2017
</metadata>
<g transform="translate(0.000000,524.000000) scale(0.100000,-0.100000)"
fill="#000000" stroke="none">
<path d="M2214 4156 c-3 -9 -10 -16 -16 -16 -5 0 -6 5 -3 10 9 14 -28 12 -47
-2 -8 -7 -20 -22 -26 -33 -10 -17 -11 -18 -12 -2 0 24 -17 21 -46 -8 -16 -17
-23 -32 -19 -42 5 -15 4 -15 -13 0 -18 16 -20 16 -42 -8 -19 -20 -21 -27 -10
-40 15 -19 5 -34 -12 -17 -9 9 -16 8 -30 -5 -23 -20 -23 -32 0 -49 14 -10 15
-15 5 -25 -10 -10 -13 -10 -13 -1 0 18 -27 15 -34 -4 -10 -25 -7 -32 14 -39
11 -3 20 -13 20 -21 0 -11 -4 -12 -19 -5 -15 8 -20 7 -25 -5 -11 -30 -6 -40
21 -39 19 0 29 -6 31 -18 3 -16 1 -17 -16 -8 -17 9 -20 8 -18 -14 1 -25 6 -25
69 -8 20 5 21 -1 7 -28 -9 -15 -7 -19 5 -19 9 0 13 5 10 10 -3 6 2 10 12 10
14 0 15 2 4 9 -7 5 -10 14 -7 20 4 7 -1 11 -13 11 -27 0 -36 18 -18 38 8 9 17
29 21 45 5 23 9 26 25 17 17 -8 20 -6 26 22 4 18 28 52 55 79 59 59 132 85
195 68 22 -6 47 -11 56 -12 9 -1 16 -6 17 -12 0 -5 4 -21 7 -35 4 -14 3 -20
-2 -14 -10 13 -43 14 -43 2 0 -5 -4 -6 -10 -3 -6 3 -10 -4 -10 -18 0 -23 -32
-67 -50 -67 -5 0 -10 12 -12 27 -4 39 -43 57 -75 36 -24 -16 -31 -35 -11 -30
6 1 14 -7 16 -18 4 -17 2 -18 -12 -5 -16 12 -17 11 -11 -13 6 -23 4 -27 -15
-27 -21 0 -22 3 -16 50 5 35 3 50 -5 50 -6 0 -1 9 12 21 23 19 23 20 2 10 -27
-14 -36 -28 -24 -36 16 -9 1 -35 -21 -35 -14 0 -19 -6 -16 -22 2 -13 8 -22 14
-21 5 1 11 -7 11 -18 1 -10 -2 -19 -8 -19 -5 0 -9 7 -9 15 0 8 -6 12 -14 9 -8
-3 -13 -13 -11 -22 1 -9 -10 -25 -24 -34 -21 -15 -23 -18 -8 -18 10 0 17 -6
15 -12 -6 -17 60 -63 92 -65 13 -1 30 3 37 9 9 7 13 7 13 -1 0 -14 37 -15 45
-1 3 6 15 10 25 10 10 0 32 11 48 25 17 14 34 25 40 25 5 0 15 13 21 29 12 28
61 61 61 41 0 -6 8 -10 18 -10 11 -1 8 -6 -13 -18 -16 -9 -34 -16 -40 -17 -15
0 -18 -35 -3 -36 7 0 -3 -6 -22 -12 -24 -9 -37 -9 -42 -2 -7 10 -9 4 -12 -35
-1 -10 -10 -14 -28 -12 -17 2 -34 -4 -48 -18 -21 -21 -32 -22 -92 -4 -10 3
-18 0 -18 -6 0 -6 5 -8 12 -4 7 4 8 3 4 -5 -5 -8 -23 -10 -54 -6 -37 4 -43 3
-27 -5 11 -6 25 -22 32 -35 7 -16 7 -23 1 -18 -8 4 -9 -5 -5 -27 4 -18 7 -36
7 -40 0 -3 21 -21 46 -40 48 -34 46 -34 174 -15 14 2 42 4 63 4 30 1 40 6 44
20 3 12 15 21 32 23 17 2 27 10 29 23 1 11 5 39 8 63 3 23 3 50 -1 60 -9 19
-9 28 0 161 4 67 3 96 -6 102 -9 5 -7 13 5 30 20 29 21 43 1 35 -18 -6 -18 -5
-5 29 9 23 6 32 -15 57 -49 58 -92 79 -172 85 -61 5 -74 3 -79 -11z m241 -86
c3 -5 1 -10 -4 -10 -6 0 -11 5 -11 10 0 6 2 10 4 10 3 0 8 -4 11 -10z m-87
-175 c-6 -6 -12 -5 -18 5 -9 13 -10 13 -10 0 0 -13 -2 -13 -9 -1 -6 9 -5 19 2
26 10 10 15 10 28 -4 11 -10 13 -20 7 -26z m77 17 c-6 -4 -10 -13 -11 -19 -2
-29 -5 -33 -19 -33 -8 0 -15 9 -15 20 0 11 5 20 11 20 8 0 8 4 0 14 -10 11 -8
15 6 18 22 5 42 -10 28 -20z m-225 4 c0 -3 -4 -8 -10 -11 -5 -3 -10 -1 -10 4
0 6 5 11 10 11 6 0 10 -2 10 -4z m243 -41 c-3 -9 -8 -14 -10 -11 -3 3 -2 9 2
15 9 16 15 13 8 -4z m-103 -4 c0 -6 -4 -13 -10 -16 -5 -3 -10 1 -10 9 0 9 5
16 10 16 6 0 10 -4 10 -9z m-30 -31 c0 -10 -51 -60 -61 -60 -6 0 53 70 59 70
1 0 2 -4 2 -10z"/>
<path d="M2700 4146 c0 -21 -20 -30 -33 -17 -19 19 -37 13 -34 -11 2 -20 -2
-23 -25 -20 -27 3 -38 -11 -18 -23 6 -3 10 -1 10 6 0 7 3 10 6 7 3 -4 0 -16
-6 -28 -8 -15 -17 -19 -31 -15 -26 9 -24 -7 4 -34 21 -19 26 -20 36 -7 7 8 9
21 5 28 -4 7 -4 10 0 6 5 -4 17 1 27 11 24 23 87 42 95 30 3 -5 10 -7 15 -4 5
3 6 0 4 -7 -4 -11 10 -13 65 -13 38 0 70 -3 70 -7 0 -5 8 -8 18 -8 9 0 25 -14
35 -31 10 -19 23 -29 31 -26 8 3 16 -2 19 -14 3 -10 13 -19 24 -19 13 0 14 -3
5 -8 -9 -6 -4 -17 19 -40 26 -27 29 -35 19 -47 -10 -12 -10 -15 4 -15 14 0 21
-26 18 -61 -1 -3 15 -5 34 -5 38 1 48 24 14 33 -26 7 -20 27 9 31 26 4 24 21
-5 36 -10 6 -21 12 -23 14 -3 1 4 9 15 17 18 15 18 16 -8 35 -16 12 -24 27
-22 38 4 12 -4 21 -25 30 -18 8 -31 22 -33 35 -2 12 -10 22 -18 22 -9 0 -26
10 -40 23 -14 13 -31 20 -41 17 -11 -4 -22 1 -28 13 -13 25 -50 35 -57 17 -7
-17 -34 -8 -34 11 0 16 -36 19 -45 4 -3 -5 -15 -10 -26 -10 -10 0 -19 5 -19
10 0 6 -7 10 -15 10 -8 0 -15 -6 -15 -14z"/>
<path d="M2250 4018 c0 -4 5 -8 11 -8 5 0 7 -6 3 -12 -4 -7 -3 -9 1 -5 15 13
14 34 -1 34 -8 0 -14 -4 -14 -9z"/>
<path d="M2290 4006 c0 -8 13 -16 30 -18 19 -3 29 -1 27 6 -2 6 -11 10 -20 10
-9 -1 -14 2 -11 7 3 5 -2 9 -10 9 -9 0 -16 -6 -16 -14z"/>
<path d="M2550 3965 c7 -8 16 -15 20 -15 4 0 10 7 14 15 4 11 -2 15 -21 15
-21 0 -24 -2 -13 -15z"/>
<path d="M2850 3930 c0 -13 5 -17 20 -13 11 3 20 9 20 13 0 4 -9 10 -20 13
-15 4 -20 0 -20 -13z"/>
<path d="M2668 3925 c-12 -12 32 -107 62 -135 16 -15 54 -40 85 -55 52 -25 60
-26 100 -15 24 7 56 26 72 42 l28 31 -29 -19 c-34 -21 -104 -23 -160 -5 -50
17 -115 76 -135 124 -9 21 -19 35 -23 32z"/>
<path d="M2766 3911 c-11 -18 14 -61 46 -81 41 -25 79 -25 109 -1 l23 18 -32
-5 c-41 -6 -85 5 -76 19 4 6 0 15 -7 20 -12 7 -12 9 0 9 11 0 11 3 1 15 -14
17 -56 20 -64 6z"/>
<path d="M2564 3868 c4 -24 8 -81 9 -128 2 -47 9 -95 16 -108 6 -12 9 -28 5
-35 -4 -6 -4 -9 1 -5 4 4 14 0 22 -8 14 -13 18 -13 40 1 20 13 42 15 132 9
130 -8 149 -4 197 41 30 29 33 35 17 35 -10 0 -24 5 -30 11 -8 8 -13 8 -18 0
-3 -6 -3 -10 2 -9 4 2 8 -1 8 -7 0 -5 -4 -8 -10 -6 -5 2 -28 4 -50 5 -22 0
-43 4 -46 8 -3 5 -23 12 -44 15 -21 3 -46 14 -56 24 -10 10 -30 21 -44 25 -14
3 -25 11 -25 18 0 6 -14 20 -30 31 -16 11 -30 28 -30 38 0 10 -4 16 -8 13 -5
-3 -19 8 -31 24 -18 25 -19 30 -6 30 9 0 13 5 10 10 -3 6 -13 10 -22 10 -13 0
-14 -8 -9 -42z"/>
<path d="M2007 3843 c-10 -9 -9 -23 1 -23 5 0 9 7 9 15 0 17 -1 18 -10 8z"/>
<path d="M3070 3741 c0 -11 39 -25 47 -18 3 3 2 10 -2 16 -8 13 -45 15 -45 2z"/>
<path d="M3025 3700 c3 -5 13 -10 21 -10 8 0 12 5 9 10 -3 6 -13 10 -21 10 -8
0 -12 -4 -9 -10z"/>
<path d="M1751 3373 c-23 -19 -40 -75 -41 -130 0 -25 -6 -36 -27 -47 -40 -22
-23 -20 123 14 153 34 330 54 624 70 118 6 235 14 260 17 l45 7 -50 7 c-27 3
-77 5 -110 2 -33 -2 -157 -10 -275 -18 -131 -8 -253 -22 -313 -35 -105 -23
-144 -23 -139 -1 2 8 -7 41 -19 73 -23 63 -40 72 -78 41z"/>
<path d="M2540 3219 c-63 -4 -162 -10 -220 -14 -174 -10 -319 -26 -439 -46
-141 -24 -182 -36 -215 -63 -22 -19 -24 -24 -13 -44 l13 -22 22 20 c11 11 23
20 25 20 6 0 0 -70 -6 -77 -3 -3 1 -12 9 -21 10 -9 14 -27 12 -43 -3 -15 -1
-26 4 -23 4 3 8 -16 8 -41 0 -26 -4 -44 -9 -40 -5 3 -12 1 -15 -4 -6 -8 36
-32 80 -45 11 -3 69 -12 130 -20 97 -12 112 -16 140 -42 24 -22 29 -34 23 -49
-7 -18 -8 -18 -8 5 -1 17 -4 21 -12 13 -18 -18 6 -48 53 -66 24 -8 60 -21 82
-29 48 -16 67 -50 43 -76 -13 -14 -17 -38 -17 -101 0 -59 -3 -80 -11 -75 -8 5
-10 -1 -7 -20 5 -22 1 -29 -19 -37 -13 -5 -26 -16 -29 -24 -4 -8 -13 -15 -21
-15 -8 0 -11 -5 -7 -12 4 -7 3 -8 -5 -4 -6 4 -19 2 -27 -5 -12 -10 -12 -14 -2
-22 10 -7 9 -8 -3 -4 -9 3 -26 -1 -38 -9 -11 -8 -21 -12 -21 -7 0 4 -7 0 -15
-11 -7 -10 -18 -15 -24 -11 -6 3 -11 0 -11 -8 0 -8 -11 -18 -25 -21 -14 -4
-25 -11 -25 -16 0 -6 -12 -15 -26 -20 -24 -10 -26 -14 -19 -48 3 -20 8 -45 9
-55 1 -10 7 -22 12 -25 14 -10 16 -32 3 -32 -8 0 -7 -6 2 -17 8 -9 9 -14 3
-10 -7 4 -15 0 -18 -9 -9 -23 -7 -31 4 -14 15 24 24 2 10 -25 -11 -20 -11 -30
-1 -51 8 -18 9 -30 2 -37 -5 -5 -7 -16 -4 -23 3 -8 0 -14 -5 -14 -12 0 -25 33
-28 70 -1 14 -2 27 -3 30 -1 2 -18 -12 -38 -31 -21 -20 -54 -48 -73 -64 -19
-15 -35 -31 -35 -34 0 -3 -4 -12 -8 -18 -10 -16 5 -17 21 -1 10 10 16 8 29 -5
11 -10 13 -17 5 -17 -8 0 -9 -10 -5 -30 4 -24 1 -35 -17 -50 -13 -12 -17 -20
-10 -20 10 0 9 -4 -2 -17 -17 -20 -61 -288 -78 -478 -5 -60 -16 -141 -24 -180
-9 -38 -17 -101 -20 -140 -3 -42 -2 -54 2 -30 5 31 9 36 15 22 4 -10 7 -33 7
-49 0 -41 12 -29 17 17 3 26 0 35 -8 29 -9 -5 -10 1 -5 22 5 23 4 26 -4 14
-17 -22 -3 79 16 127 16 38 16 38 31 16 16 -24 33 -30 33 -12 0 5 -4 8 -8 5
-5 -3 -15 6 -22 19 -12 23 -11 29 9 56 14 18 21 39 18 51 -3 11 -3 17 0 14 12
-12 33 17 33 46 0 16 7 36 15 44 8 9 15 24 15 35 0 17 19 60 49 109 5 8 12 24
16 35 6 19 7 19 20 2 15 -20 21 -88 30 -302 17 -444 19 -457 57 -501 34 -39
118 -85 187 -104 l44 -11 -7 -61 c-6 -62 -51 -293 -62 -322 -5 -13 1 -16 33
-16 39 0 39 0 56 60 10 33 16 64 12 70 -3 5 -3 21 1 35 4 16 10 22 14 16 3 -6
19 34 35 90 l28 101 51 -6 c28 -3 110 -8 181 -11 l130 -4 -100 9 c-303 27
-352 35 -383 59 -22 16 -21 17 40 10 35 -3 66 -4 70 -2 4 2 5 22 2 43 -4 28
-2 40 6 40 9 0 9 4 -1 17 -9 10 -10 18 -4 20 13 4 7 71 -6 79 -5 3 -9 17 -9
31 0 23 -2 24 -17 12 -10 -7 -15 -10 -11 -5 4 5 2 18 -3 29 -8 14 -13 16 -19
8 -4 -7 -6 14 -5 45 2 46 6 59 21 65 11 4 13 8 6 8 -7 1 -10 6 -6 12 11 19 14
79 4 79 -6 0 -10 4 -10 9 0 7 24 8 51 2 3 0 4 -13 1 -27 -4 -20 -2 -25 8 -19
10 6 12 3 8 -13 -4 -12 -2 -20 3 -16 5 3 9 20 9 39 0 19 5 37 10 40 6 3 10 1
10 -4 0 -6 6 -11 13 -11 8 0 14 7 14 15 0 13 -22 20 -48 17 -4 -1 -9 8 -12 18
-3 11 -1 20 4 20 5 0 9 5 9 11 0 7 8 18 18 25 15 12 14 13 -12 14 -28 0 -28 1
-13 18 9 9 28 29 42 45 15 15 31 25 36 22 5 -4 9 -1 9 5 0 6 -7 10 -16 8 -25
-4 -28 19 -4 25 14 4 20 13 20 32 0 22 -4 26 -19 22 -12 -3 -22 1 -25 10 -8
21 -8 24 7 22 6 -1 20 -1 31 0 15 1 16 4 6 16 -10 13 -9 15 9 15 11 0 21 5 21
11 0 5 5 7 10 4 6 -3 10 1 10 9 0 9 -9 16 -21 16 -11 0 -18 4 -15 9 3 4 81 9
173 9 213 1 296 9 289 28 -3 8 -1 14 4 14 10 0 13 -12 8 -27 -2 -3 10 -12 27
-19 28 -11 32 -10 58 18 l29 30 29 -33 c23 -25 31 -30 42 -20 15 11 47 5 47
-9 0 -12 -30 -21 -43 -13 -7 4 -8 0 -4 -11 6 -14 3 -16 -16 -10 -12 4 -25 11
-28 16 -4 6 -9 6 -13 -1 -4 -6 1 -14 11 -18 25 -9 43 -29 35 -37 -3 -4 0 -11
7 -15 9 -6 3 -10 -18 -13 -21 -3 -31 0 -31 9 0 7 -4 13 -10 13 -5 0 -10 -6
-10 -14 0 -16 -21 -26 -56 -26 -13 0 -24 -4 -24 -10 0 -5 7 -10 16 -10 8 0 13
-4 9 -9 -3 -5 -1 -12 4 -15 5 -3 10 -25 11 -48 4 -104 6 -118 16 -118 17 0 25
-27 29 -90 6 -88 15 -134 28 -142 6 -4 8 -8 4 -8 -4 0 -3 -9 3 -19 5 -11 11
-38 12 -61 1 -45 18 -34 18 12 0 18 5 26 16 24 21 -3 37 -33 30 -52 -3 -9 1
-22 9 -30 11 -11 12 -21 5 -33 -6 -12 -5 -22 3 -30 9 -10 9 -15 -4 -24 -9 -7
-14 -18 -11 -26 3 -10 -1 -12 -16 -9 -15 4 -19 1 -17 -11 2 -9 4 -24 4 -34 1
-10 5 -16 11 -12 5 3 7 12 4 19 -3 7 2 16 10 19 11 5 16 0 16 -13 0 -11 5 -20
11 -20 18 0 80 40 116 73 l33 31 -6 190 c-3 105 -7 210 -8 234 -4 40 6 57 17
30 3 -7 5 6 4 28 -1 23 -6 39 -11 36 -5 -3 -6 11 -1 34 4 21 8 54 8 72 1 19 7
32 14 32 7 0 12 -3 12 -7 -4 -27 2 -425 7 -421 3 3 5 76 6 162 0 157 0 157 26
182 15 13 30 24 34 24 16 0 7 -18 -14 -33 -28 -18 -15 -36 13 -18 12 7 24 10
27 7 3 -3 -1 -6 -9 -6 -8 0 -3 -10 14 -25 15 -14 27 -34 26 -43 0 -14 -2 -14
-6 -2 -9 25 -35 50 -52 50 -13 -1 -12 -4 4 -18 31 -26 72 -144 45 -127 -5 3
-10 1 -10 -5 0 -7 -7 -10 -15 -7 -8 4 -17 1 -21 -4 -3 -6 -15 -9 -25 -6 -24 6
-25 -16 -1 -39 9 -9 26 -35 37 -58 11 -22 26 -42 33 -42 22 -3 23 -4 12 -25
-13 -23 0 -69 28 -102 20 -22 9 -33 -12 -12 -9 9 -16 11 -16 5 0 -6 14 -24 31
-39 23 -22 29 -34 24 -50 -4 -12 -2 -21 4 -21 6 0 11 5 11 10 0 6 5 10 10 10
18 0 11 -18 -10 -25 -11 -3 -20 -11 -20 -17 0 -5 7 -8 14 -5 18 7 30 -24 21
-55 -6 -22 -5 -22 7 -3 28 45 9 754 -27 995 -7 47 -11 87 -9 89 2 2 17 -2 33
-9 17 -6 32 -10 35 -9 3 2 12 -5 20 -16 13 -16 15 -17 16 -4 0 9 -19 29 -42
45 -24 16 -45 31 -48 34 -3 4 -22 16 -42 29 -21 12 -38 29 -38 37 0 8 -5 14
-11 14 -5 0 -8 4 -5 9 4 5 0 11 -6 14 -9 3 -7 7 6 12 11 5 21 3 27 -6 7 -11 9
-11 9 4 0 9 -5 17 -11 17 -8 0 -7 6 2 17 8 9 9 14 2 10 -6 -4 -22 -2 -35 3
-23 10 -23 10 0 6 34 -6 26 6 -28 44 -47 33 -61 50 -42 50 5 0 27 -13 48 -28
21 -15 44 -31 50 -35 14 -8 -22 96 -61 177 -15 33 -34 78 -41 100 -12 37 -13
28 -13 -106 1 -115 4 -148 14 -148 15 0 65 -39 49 -40 -5 0 -19 7 -30 15 -10
8 -22 15 -26 15 -5 0 -8 -35 -8 -77 -1 -43 -5 -98 -10 -123 -4 -25 -5 -46 -1
-48 5 -1 6 -14 3 -27 -2 -13 1 -38 7 -55 9 -28 8 -31 -7 -28 -14 3 -17 13 -16
56 1 28 -2 49 -7 46 -5 -3 -9 1 -10 8 0 7 -5 3 -11 -10 -6 -12 -15 -22 -19
-22 -14 0 3 34 25 52 l21 17 -25 -3 c-19 -2 -26 2 -26 16 0 10 6 18 12 18 13
0 28 30 19 38 -3 3 -5 0 -5 -6 0 -7 -4 -12 -10 -12 -5 0 -10 9 -10 19 0 11 -6
22 -12 25 -9 4 -10 8 -2 11 6 3 9 16 7 29 -3 13 0 33 6 45 8 13 8 21 2 21 -6
0 -7 7 -4 17 5 12 3 14 -7 8 -10 -6 -12 -4 -7 9 4 10 7 25 8 34 0 11 2 12 6 4
2 -6 9 -10 13 -7 5 3 0 21 -12 41 -20 33 -20 36 -3 48 13 9 15 15 7 20 -20 12
-13 52 14 81 18 20 22 31 15 38 -8 8 -11 7 -11 -3 0 -10 -5 -9 -19 4 -22 20
-32 10 -26 -23 3 -17 0 -21 -11 -17 -22 8 -72 17 -56 10 24 -11 1 -24 -44 -24
-24 0 -44 -5 -44 -11 0 -6 -9 -8 -21 -4 -17 6 -20 3 -17 -21 3 -23 -2 -29 -27
-36 -54 -16 -77 -17 -71 -2 3 8 2 14 -3 14 -5 0 -12 -10 -15 -22 -6 -23 -7
-23 -19 -3 -6 11 -23 21 -37 21 -14 1 -37 2 -52 3 -20 1 -26 5 -22 16 4 11 -1
15 -17 15 -33 1 -6 15 41 23 19 3 29 3 23 0 -19 -7 -15 -19 6 -19 11 0 19 4
18 9 -1 5 4 12 11 14 7 3 12 1 11 -4 -4 -23 3 -25 17 -5 16 24 44 30 44 10 0
-9 3 -10 8 -2 4 6 14 14 22 17 12 4 11 6 -3 6 -10 1 -17 7 -15 14 3 7 27 13
59 15 30 2 58 7 63 13 6 6 6 9 -1 9 -6 0 -16 14 -22 30 -10 30 -9 31 42 55 29
14 41 23 27 19 -14 -3 -34 -7 -45 -7 -11 -1 -26 -6 -32 -10 -17 -11 -16 4 0
27 15 20 11 70 -4 60 -5 -3 -9 1 -9 9 0 8 -11 18 -24 21 -39 10 -59 51 -61
130 -1 39 -5 78 -8 86 -32 88 -24 107 55 127 29 8 53 15 55 17 7 6 -9 35 -22
40 -18 7 -85 -15 -85 -28 -1 -33 -29 -46 -121 -56 -105 -12 -402 -15 -485 -4
-48 6 -53 8 -42 22 11 13 10 15 -4 9 -12 -4 -18 -1 -18 9 0 8 6 17 14 20 12 5
13 11 3 32 -6 15 -16 30 -21 33 -14 11 1 39 21 39 25 1 58 26 41 32 -38 13
-148 4 -213 -17 -15 -5 -17 -4 -6 3 8 6 16 21 17 34 3 23 3 23 -8 2 -15 -32
-48 -46 -83 -35 -21 7 -24 10 -10 10 15 1 17 3 7 10 -11 7 -10 10 3 15 23 9
25 8 25 -9 0 -8 4 -15 8 -15 12 0 11 33 -1 48 -8 10 -7 16 4 23 22 14 28 11
22 -11 -3 -11 0 -20 6 -20 6 0 11 6 11 13 0 10 14 12 58 6 47 -5 62 -3 85 14
16 10 25 22 22 25 -3 4 -10 0 -15 -8 -13 -22 -34 2 -25 30 5 17 10 19 21 9 12
-9 14 -5 14 26 l0 38 22 -19 c21 -19 21 -19 14 1 -15 36 -11 49 17 63 37 18
34 32 -8 32 -19 0 -35 4 -35 10 0 5 7 6 17 3 9 -4 14 -2 10 3 -3 6 25 9 71 9
42 -1 85 3 94 7 13 6 16 5 12 -5 -3 -10 4 -12 30 -9 20 2 34 9 33 15 -3 15 43
22 353 51 146 14 299 30 340 36 115 15 129 13 123 -9 -4 -15 -12 -19 -40 -16
-28 3 -36 -1 -40 -16 -3 -10 -10 -19 -15 -19 -5 0 -6 -5 -3 -10 4 -6 11 -8 16
-5 5 4 9 0 9 -8 0 -7 9 -23 21 -36 11 -12 18 -29 15 -37 -4 -10 -1 -14 6 -12
7 3 15 18 16 34 2 16 1 26 -3 22 -4 -4 -14 -1 -21 7 -18 17 -18 29 -1 22 10
-4 13 2 10 21 -4 26 -4 26 12 7 8 -11 13 -26 10 -34 -3 -9 -2 -12 2 -7 4 4 8
18 8 29 0 13 9 26 23 32 24 11 29 31 10 38 -7 2 4 4 25 3 21 -1 42 -7 46 -15
11 -17 32 -6 25 13 -14 37 -220 56 -584 54 -146 0 -317 -4 -380 -9z m-660
-116 c11 -17 11 -17 6 0 -5 16 3 17 89 16 58 0 95 -5 95 -11 0 -7 -19 -9 -50
-6 -40 4 -53 1 -67 -14 -10 -11 -13 -19 -8 -18 22 5 27 -1 15 -15 -10 -12 -14
-12 -26 0 -8 7 -14 18 -14 24 0 5 -4 13 -10 16 -5 3 -7 0 -4 -8 3 -8 -2 -17
-11 -21 -9 -3 -13 -2 -10 4 3 6 2 10 -4 10 -5 0 -11 -6 -14 -12 -3 -10 -7 -10
-20 1 -14 11 -17 11 -17 0 0 -10 -3 -10 -12 -1 -10 10 -10 15 1 21 8 5 21 7
29 3 11 -4 14 -1 9 11 -8 22 9 22 23 0z m140 -22 c0 -5 -9 -7 -20 -4 -11 3
-20 7 -20 9 0 2 9 4 20 4 11 0 20 -4 20 -9z m-5 -21 l20 -9 -20 -1 c-17 0 -18
-2 -5 -13 20 -16 26 -51 8 -44 -7 2 -12 10 -10 16 1 6 -2 11 -8 11 -5 0 -10
-5 -10 -11 0 -5 -4 -7 -10 -4 -5 3 -10 -1 -10 -9 0 -23 -17 -28 -34 -10 -19
18 -21 38 -3 31 6 -2 11 -10 10 -16 -2 -6 2 -11 7 -11 6 0 10 11 10 24 0 13 7
27 16 30 8 3 12 10 9 16 -7 12 2 12 30 0z m-105 -41 c0 -6 -4 -7 -10 -4 -5 3
-10 11 -10 16 0 6 5 7 10 4 6 -3 10 -11 10 -16z m355 -38 c3 -5 1 -12 -5 -16
-5 -3 -10 1 -10 9 0 18 6 21 15 7z m-260 -11 c3 -5 1 -10 -4 -10 -6 0 -11 5
-11 10 0 6 2 10 4 10 3 0 8 -4 11 -10z m35 0 c0 -5 -5 -10 -11 -10 -5 0 -7 5
-4 10 3 6 8 10 11 10 2 0 4 -4 4 -10z m-163 -15 c8 -23 0 -24 -19 -3 -15 15
-16 18 -3 18 9 0 18 -7 22 -15z m86 -37 c-4 -7 -7 -29 -6 -48 1 -27 0 -29 -4
-7 -2 15 -8 27 -13 27 -5 0 -12 9 -15 21 -9 27 25 56 38 33 4 -8 5 -20 0 -26z
m281 -2 c-3 -9 -10 -16 -15 -16 -11 0 -12 21 -3 45 6 15 8 15 16 2 4 -8 5 -22
2 -31z m-231 13 c-4 -13 -9 -17 -15 -11 -11 11 -3 32 12 32 4 0 6 -9 3 -21z
m147 -39 c0 -5 -8 -10 -17 -10 -15 0 -16 2 -3 10 19 12 20 12 20 0z m-130 -14
c0 4 6 -1 14 -12 13 -17 12 -20 -10 -32 -15 -8 -24 -21 -24 -37 0 -14 -4 -25
-10 -25 -5 0 -10 4 -10 9 0 6 -16 7 -36 4 -35 -6 -35 -5 -28 23 8 36 14 43 14
19 0 -14 3 -15 15 -5 12 10 15 10 15 -4 0 -9 5 -16 10 -16 6 0 10 6 9 13 -1 6
2 27 6 45 6 26 10 30 21 21 8 -6 14 -8 14 -3z m-120 -76 c0 -5 -15 -10 -32 -9
-31 1 -32 1 -8 9 35 11 40 11 40 0z m350 -65 c0 -19 -5 -25 -21 -25 -12 0 -17
4 -13 11 3 6 -1 10 -12 9 -37 -4 -38 2 -4 15 48 19 50 18 50 -10z m-157 4 c-8
-8 -16 -8 -30 0 -16 9 -14 10 12 11 21 0 26 -3 18 -11z m47 1 c0 -5 -7 -10
-15 -10 -8 0 -15 5 -15 10 0 6 7 10 15 10 8 0 15 -4 15 -10z m607 -366 c-3 -3
-12 -4 -19 -1 -8 3 -5 6 6 6 11 1 17 -2 13 -5z m-64 -11 c-7 -2 -19 -2 -25 0
-7 3 -2 5 12 5 14 0 19 -2 13 -5z m-320 -40 c-7 -2 -21 -2 -30 0 -10 3 -4 5
12 5 17 0 24 -2 18 -5z m12 -48 c0 -5 -15 -11 -32 -13 -25 -3 -33 1 -33 13 0
12 8 16 33 13 17 -2 32 -7 32 -13z m425 -2 c29 -10 -33 -24 -97 -22 -65 2 -80
13 -40 29 21 8 105 4 137 -7z m75 -3 c-3 -5 -17 -10 -31 -10 -13 0 -24 5 -24
10 0 6 14 10 31 10 17 0 28 -4 24 -10z m-915 -195 c0 -8 -4 -15 -10 -15 -5 0
-10 7 -10 15 0 8 5 15 10 15 6 0 10 -7 10 -15z m114 1 c-6 -14 -52 -31 -61
-22 -4 4 30 22 64 35 1 1 0 -5 -3 -13z m21 -26 c-3 -5 -11 -10 -16 -10 -6 0
-7 5 -4 10 3 6 11 10 16 10 6 0 7 -4 4 -10z m25 -44 c0 -7 15 -18 33 -23 l32
-10 -36 -7 c-42 -9 -92 15 -82 40 7 18 53 19 53 0z m60 -2 c0 -2 -12 -4 -26
-4 -14 0 -23 4 -20 9 6 8 46 4 46 -5z m549 -61 c-10 -11 -14 -11 -20 -1 -10
17 -2 28 17 21 11 -4 12 -8 3 -20z m-279 -33 c0 -5 -2 -10 -4 -10 -3 0 -8 5
-11 10 -3 6 -1 10 4 10 6 0 11 -4 11 -10z m404 -29 l-6 -26 19 21 c13 16 24
20 38 15 11 -5 30 -2 45 6 26 13 73 18 55 5 -13 -9 -18 -52 -6 -52 5 0 12 -7
15 -16 3 -8 2 -13 -3 -10 -5 3 -12 -2 -15 -11 -6 -15 -8 -15 -19 1 -11 15 -13
12 -13 -23 1 -39 16 -55 31 -31 4 6 11 8 16 4 5 -3 -1 -14 -13 -23 -19 -16
-24 -16 -36 -5 -7 8 -20 14 -28 14 -8 0 -14 4 -14 9 0 12 -53 21 -64 11 -9 -9
-53 38 -49 51 1 3 -9 4 -21 2 -25 -5 -66 12 -66 27 0 11 40 50 52 50 4 0 8 -8
8 -17 0 -10 4 -14 8 -8 9 13 35 18 27 5 -3 -5 0 -10 8 -10 20 0 28 25 14 39
-9 9 -8 11 5 6 13 -5 16 -14 12 -34z m-737 -28 c2 -20 6 -39 8 -41 2 -2 0 -16
-5 -32 -6 -20 -4 -35 7 -49 8 -12 10 -21 4 -21 -6 0 -10 -4 -8 -9 1 -5 -1 -9
-5 -10 -22 -3 -28 0 -22 11 4 6 7 54 7 105 0 94 6 116 14 46z m370 28 c-1 -11
-12 -25 -25 -30 -15 -7 -21 -7 -17 -1 3 6 -4 10 -17 11 -22 0 -22 1 -3 8 11 5
25 6 31 4 6 -2 14 3 17 11 9 22 16 20 14 -3z m-228 -27 c6 4 11 3 11 -2 0 -5
7 -9 15 -9 9 0 14 6 11 14 -3 7 -1 13 5 13 11 0 22 -28 17 -45 -4 -12 -28 -16
-28 -5 0 18 -28 18 -33 0 -3 -13 0 -17 9 -13 32 12 11 -8 -22 -22 -39 -16 -62
-20 -50 -7 7 7 11 8 37 11 6 0 4 10 -5 23 -11 16 -12 26 -4 41 7 15 12 16 18
7 4 -7 13 -9 19 -6z m295 -169 c5 -29 4 -36 -3 -25 -6 8 -11 28 -11 44 0 39 6
31 14 -19z m222 -12 c-2 -3 -10 -2 -16 2 -9 6 -9 10 1 16 11 7 11 9 -1 9 -13
0 -13 1 0 10 11 7 16 5 18 -11 2 -11 1 -23 -2 -26z m-279 5 c-3 -7 -5 -2 -5
12 0 14 2 19 5 13 2 -7 2 -19 0 -25z m502 8 c8 -9 8 -21 2 -37 -5 -13 -10 -18
-10 -11 -1 7 -8 20 -16 28 -8 9 -15 20 -15 25 0 14 26 11 39 -5z m-372 -28
c-3 -8 -6 -5 -6 6 -1 11 2 17 5 13 3 -3 4 -12 1 -19z m-727 -35 c5 -21 12 -49
15 -63 l7 -25 -17 24 c-10 13 -20 44 -23 70 -5 53 7 50 18 -6z m228 24 c2 -10
-3 -17 -12 -17 -10 0 -16 9 -16 21 0 24 23 21 28 -4z m387 3 c16 -7 17 -9 3
-9 -9 -1 -22 -9 -27 -18 -9 -15 -10 -14 -9 10 3 29 3 30 33 17z m-385 -47 c0
-5 2 -42 5 -83 2 -51 0 -77 -8 -82 -8 -5 -6 -8 7 -8 13 0 16 -4 10 -12 -5 -7
-9 -22 -8 -33 1 -11 2 -34 3 -51 1 -30 4 -32 46 -38 63 -10 56 -25 -9 -22
l-53 3 4 -34 c4 -30 2 -34 -14 -31 -12 2 -18 12 -18 33 0 17 -9 38 -19 48 -19
17 -19 17 2 17 24 0 24 -1 28 145 1 39 2 89 3 113 0 23 6 42 11 42 6 0 10 -3
10 -7z m377 -65 c-3 -7 -5 -2 -5 12 0 14 2 19 5 13 2 -7 2 -19 0 -25z m328 2
c-3 -5 -11 -10 -16 -10 -6 0 -7 5 -4 10 3 6 11 10 16 10 6 0 7 -4 4 -10z m-60
-40 c3 -5 1 -10 -4 -10 -6 0 -11 5 -11 10 0 6 2 10 4 10 3 0 8 -4 11 -10z
m228 -4 c4 -10 1 -13 -9 -9 -15 6 -19 23 -5 23 5 0 11 -7 14 -14z m-1096 -18
c-3 -8 -6 -5 -6 6 -1 11 2 17 5 13 3 -3 4 -12 1 -19z m768 2 c3 -5 2 -10 -4
-10 -5 0 -13 5 -16 10 -3 6 -2 10 4 10 5 0 13 -4 16 -10z m316 -34 c-8 -10 -9
-16 -1 -21 14 -9 32 4 24 18 -5 8 -3 8 7 0 10 -10 10 -16 1 -25 -8 -8 -8 -17
-1 -30 6 -11 8 -22 5 -25 -3 -3 -10 6 -15 21 -6 14 -14 26 -18 26 -5 0 -14 4
-22 9 -12 8 -12 11 0 25 17 19 36 21 20 2z m-241 -12 c0 -8 -5 -12 -10 -9 -6
4 -8 11 -5 16 9 14 15 11 15 -7z m48 7 c11 -6 9 -9 -5 -13 -12 -3 -20 0 -20 8
0 16 6 17 25 5z m8 -48 c-10 -10 -19 5 -10 18 6 11 8 11 12 0 2 -7 1 -15 -2
-18z m-146 -3 c0 -5 -5 -10 -11 -10 -5 0 -7 5 -4 10 3 6 8 10 11 10 2 0 4 -4
4 -10z m670 -45 c0 -15 -6 -25 -15 -25 -12 0 -13 4 -3 25 6 14 13 25 15 25 1
0 3 -11 3 -25z m-375 5 c-3 -5 -18 -9 -33 -9 l-27 1 30 8 c17 4 31 8 33 9 2 0
0 -3 -3 -9z m-615 -29 c0 -12 -28 -22 -34 -12 -3 5 -3 11 1 15 9 9 33 7 33 -3z
m815 -1 c-27 -12 -43 -12 -25 0 8 5 22 9 30 9 10 0 8 -3 -5 -9z m-849 -45 c10
-2 28 -4 40 -4 11 -1 21 -8 21 -16 0 -10 -4 -12 -13 -5 -6 6 -28 11 -48 12
-20 1 -36 5 -36 10 0 5 -4 6 -10 3 -5 -3 -10 -2 -10 4 0 13 24 20 31 9 3 -5
15 -11 25 -13z m-56 -35 c0 -5 -4 -10 -10 -10 -5 0 -10 5 -10 10 0 6 5 10 10
10 6 0 10 -4 10 -10z m15 -19 c-3 -6 -14 -10 -23 -10 -15 1 -15 2 1 6 9 2 17
9 17 15 0 6 3 9 6 5 3 -3 3 -10 -1 -16z m65 -13 c0 -26 -25 -17 -26 9 -1 14 3
20 12 16 8 -3 14 -14 14 -25z m1023 -43 c1 -18 -3 -28 -13 -30 -12 -2 -14 6
-12 37 5 44 21 39 25 -7z m-976 19 c-3 -3 -12 -4 -19 -1 -8 3 -5 6 6 6 11 1
17 -2 13 -5z m-304 -66 c-5 -71 -23 -88 -23 -21 0 28 3 58 6 67 12 30 20 7 17
-46z m52 42 c3 -6 -1 -7 -9 -4 -18 7 -21 14 -7 14 6 0 13 -4 16 -10z m155 -10
c0 -5 -4 -10 -10 -10 -5 0 -10 5 -10 10 0 6 5 10 10 10 6 0 10 -4 10 -10z
m-31 -26 c4 3 12 -3 18 -13 8 -13 6 -19 -13 -28 -19 -9 -24 -8 -24 3 0 8 6 14
13 14 7 0 5 5 -5 11 -11 6 -15 16 -10 27 6 16 7 16 10 -1 2 -9 7 -15 11 -13z
m-109 -26 c0 -18 -5 -40 -10 -48 -7 -11 -10 -7 -10 17 0 17 -3 38 -6 47 -4 11
-1 16 10 16 11 0 16 -9 16 -32z m142 -45 c-3 -17 -7 -22 -10 -13 -3 8 -9 21
-15 28 -7 9 -4 12 10 12 17 0 19 -5 15 -27z m-365 -75 c-2 -18 -4 -6 -4 27 0
33 2 48 4 33 2 -15 2 -42 0 -60z m328 73 c3 -5 1 -12 -5 -16 -5 -3 -10 1 -10
9 0 18 6 21 15 7z m-188 -43 c-3 -7 -5 -2 -5 12 0 14 2 19 5 13 2 -7 2 -19 0
-25z m-350 0 c-3 -8 -6 -5 -6 6 -1 11 2 17 5 13 3 -3 4 -12 1 -19z m533 -12
c0 -3 -4 -8 -10 -11 -5 -3 -10 -1 -10 4 0 6 5 11 10 11 6 0 10 -2 10 -4z m23
-17 c-6 -6 -9 -18 -6 -25 3 -8 0 -14 -6 -14 -6 0 -11 4 -11 9 0 19 12 41 23
41 8 0 8 -3 0 -11z m-142 -30 c-5 -13 -10 -19 -10 -12 -1 15 10 45 15 40 3 -2
0 -15 -5 -28z m159 11 c0 -5 -2 -10 -4 -10 -3 0 -8 5 -11 10 -3 6 -1 10 4 10
6 0 11 -4 11 -10z m-140 -42 c0 -18 1 -51 3 -73 1 -22 -3 -52 -10 -67 -14 -29
-30 -39 -20 -13 4 8 1 39 -5 69 -10 47 -9 56 5 71 9 9 17 23 17 31 0 8 2 14 5
14 3 0 5 -15 5 -32z m-210 -38 c0 -5 -5 -10 -11 -10 -5 0 -7 5 -4 10 3 6 8 10
11 10 2 0 4 -4 4 -10z m1470 6 c0 -3 -4 -8 -10 -11 -5 -3 -10 -1 -10 4 0 6 5
11 10 11 6 0 10 -2 10 -4z m-1473 -128 c-2 -13 -4 -5 -4 17 -1 22 1 32 4 23 2
-10 2 -28 0 -40z m206 -23 c-3 -9 -8 -14 -10 -11 -3 3 -2 9 2 15 9 16 15 13 8
-4z m-188 -75 c3 -5 1 -10 -4 -10 -6 0 -11 5 -11 10 0 6 2 10 4 10 3 0 8 -4
11 -10z m4 -37 c0 -5 -4 -17 -9 -28 -8 -18 -9 -17 -9 8 -1 15 4 27 9 27 6 0
10 -3 9 -7z m301 -272 c0 -13 -2 -13 -9 -2 -5 8 -11 9 -15 3 -3 -6 -2 -13 4
-17 5 -3 10 -14 9 -23 0 -14 -2 -13 -9 3 -5 11 -9 14 -9 8 -1 -7 -5 -13 -9
-13 -5 0 -8 10 -6 23 1 12 3 27 3 34 1 18 41 3 41 -16z"/>
<path d="M2010 2850 c0 -5 5 -10 10 -10 6 0 10 5 10 10 0 6 -4 10 -10 10 -5 0
-10 -4 -10 -10z"/>
<path d="M2975 1880 c3 -5 8 -10 11 -10 2 0 4 5 4 10 0 6 -5 10 -11 10 -5 0
-7 -4 -4 -10z"/>
<path d="M2765 1870 c3 -5 8 -10 11 -10 2 0 4 5 4 10 0 6 -5 10 -11 10 -5 0
-7 -4 -4 -10z"/>
<path d="M2790 1850 c-13 -8 -13 -10 2 -10 9 0 20 5 23 10 8 13 -5 13 -25 0z"/>
<path d="M2851 1824 c0 -11 3 -14 6 -6 3 7 2 16 -1 19 -3 4 -6 -2 -5 -13z"/>
<path d="M2951 1784 c0 -11 3 -14 6 -6 3 7 2 16 -1 19 -3 4 -6 -2 -5 -13z"/>
<path d="M1693 3164 c-33 -14 -49 -31 -39 -41 3 -3 12 0 20 6 8 7 19 10 24 7
9 -6 92 17 120 33 27 16 -87 12 -125 -5z"/>
<path d="M3232 3122 c4 -15 1 -25 -10 -31 -14 -8 -13 -10 6 -8 23 1 64 57 42
57 -5 0 -10 -5 -10 -11 0 -8 -6 -7 -17 2 -15 13 -16 12 -11 -9z"/>
<path d="M3395 3040 c-4 -6 -11 -7 -17 -4 -7 4 -8 2 -4 -4 7 -12 36 -5 36 9 0
12 -7 11 -15 -1z"/>
<path d="M3310 2970 c0 -5 7 -10 16 -10 8 0 12 5 9 10 -3 6 -10 10 -16 10 -5
0 -9 -4 -9 -10z"/>
<path d="M3333 2873 c-7 -2 -13 -12 -13 -21 0 -14 2 -14 9 -3 7 11 9 11 13 0
4 -12 7 -12 21 0 27 22 5 39 -30 24z"/>
<path d="M2240 2820 c0 -5 4 -10 9 -10 6 0 13 5 16 10 3 6 -1 10 -9 10 -9 0
-16 -4 -16 -10z"/>
<path d="M3340 2820 c0 -5 5 -10 10 -10 6 0 10 5 10 10 0 6 -4 10 -10 10 -5 0
-10 -4 -10 -10z"/>
<path d="M3302 2805 c-7 -8 -9 -15 -4 -15 5 0 15 7 22 15 16 19 -1 19 -18 0z"/>
<path d="M2976 2353 c-11 -11 -6 -23 9 -23 8 0 15 4 15 9 0 13 -16 22 -24 14z"/>
<path d="M3041 2283 c7 -8 67 -42 133 -75 113 -56 119 -58 91 -29 -44 48 -113
88 -178 104 -52 14 -57 14 -46 0z"/>
<path d="M2075 2250 c-43 -14 -67 -28 -83 -50 -13 -16 -20 -30 -16 -30 10 0
174 90 174 96 0 6 -11 4 -75 -16z"/>
<path d="M3100 2126 c0 -2 7 -6 15 -10 8 -3 15 -1 15 4 0 6 -7 10 -15 10 -8 0
-15 -2 -15 -4z"/>
<path d="M1866 1955 c-87 -198 -88 -204 -22 -137 36 37 37 41 34 98 -3 44 -6
54 -12 39z"/>
<path d="M3270 1956 c0 -9 5 -16 10 -16 6 0 10 4 10 9 0 6 -4 13 -10 16 -5 3
-10 -1 -10 -9z"/>
<path d="M2970 1940 c0 -5 5 -10 10 -10 6 0 10 5 10 10 0 6 -4 10 -10 10 -5 0
-10 -4 -10 -10z"/>
<path d="M3260 1879 c0 -5 5 -7 10 -4 6 3 10 8 10 11 0 2 -4 4 -10 4 -5 0 -10
-5 -10 -11z"/>
<path d="M1901 1784 c0 -11 3 -14 6 -6 3 7 2 16 -1 19 -3 4 -6 -2 -5 -13z"/>
<path d="M3270 1690 c0 -5 5 -10 11 -10 5 0 7 5 4 10 -3 6 -8 10 -11 10 -2 0
-4 -4 -4 -10z"/>
<path d="M3270 1649 c0 -5 5 -7 10 -4 6 3 10 8 10 11 0 2 -4 4 -10 4 -5 0 -10
-5 -10 -11z"/>
<path d="M3625 1491 c-3 -5 -1 -12 5 -16 5 -3 10 1 10 9 0 18 -6 21 -15 7z"/>
<path d="M3650 1465 c0 -2 9 -9 20 -15 16 -9 18 -8 14 5 -5 13 -34 22 -34 10z"/>
<path d="M3787 1369 c7 -7 15 -10 18 -7 3 3 -2 9 -12 12 -14 6 -15 5 -6 -5z"/>
<path d="M1200 1320 c-9 -6 -10 -10 -3 -10 6 0 15 5 18 10 8 12 4 12 -15 0z"/>
<path d="M2840 1320 c19 -13 30 -13 30 0 0 6 -10 10 -22 10 -19 0 -20 -2 -8
-10z"/>
<path d="M3974 1309 c-4 -8 -3 -9 4 -5 6 3 16 -2 21 -12 6 -11 20 -22 31 -25
25 -7 18 6 -20 33 -20 15 -31 17 -36 9z"/>
<path d="M3926 1287 c3 -9 10 -17 16 -17 5 0 6 -4 3 -10 -3 -6 1 -7 10 -4 9 4
15 7 13 8 -2 1 -13 10 -26 21 -20 16 -22 16 -16 2z"/>
<path d="M2530 1277 c0 -10 -4 -15 -10 -12 -6 3 -7 -1 -4 -9 6 -15 13 -16 137
-7 10 0 15 5 12 11 -3 5 -31 9 -61 8 -39 -1 -58 3 -65 13 -7 11 -9 11 -9 -4z"/>
<path d="M2432 1255 c-11 -12 -10 -15 3 -15 8 0 15 5 15 10 0 7 6 7 19 0 28
-14 36 -12 21 5 -16 19 -41 19 -58 0z"/>
<path d="M2885 1260 c-3 -5 1 -10 9 -10 9 0 16 5 16 10 0 6 -4 10 -9 10 -6 0
-13 -4 -16 -10z"/>
<path d="M2963 1263 c9 -2 23 -2 30 0 6 3 -1 5 -18 5 -16 0 -22 -2 -12 -5z"/>
<path d="M3975 1240 c-5 -9 -4 -11 3 -6 7 4 12 1 13 -6 1 -21 259 -232 259
-211 0 3 -8 15 -17 26 -20 23 -3 16 32 -12 19 -15 19 -15 5 3 -14 18 -13 19 5
13 16 -6 15 -3 -5 12 -13 11 -27 19 -30 18 -11 -3 -50 25 -45 32 2 5 -1 14 -9
20 -8 7 -16 8 -18 4 -3 -4 -3 -2 -2 5 2 6 0 12 -4 12 -5 0 -18 9 -30 21 -13
11 -32 21 -43 22 -11 1 -17 7 -15 14 3 7 -1 10 -10 6 -8 -3 -21 0 -29 7 -9 7
-18 10 -22 7 -3 -4 -11 1 -18 10 -9 13 -14 13 -20 3z"/>
<path d="M4100 1227 c0 -3 33 -31 73 -63 39 -32 66 -51 59 -43 -14 19 -132
112 -132 106z"/>
<path d="M2888 1173 c7 -3 16 -2 19 1 4 3 -2 6 -13 5 -11 0 -14 -3 -6 -6z"/>
<path d="M2518 1163 c12 -2 30 -2 40 0 9 3 -1 5 -23 4 -22 0 -30 -2 -17 -4z"/>
<path d="M2738 1163 c7 -3 16 -2 19 1 4 3 -2 6 -13 5 -11 0 -14 -3 -6 -6z"/>
<path d="M2420 1111 c0 -10 19 -25 25 -20 1 2 -3 10 -11 17 -8 7 -14 8 -14 3z"/>
<path d="M4564 1055 c-18 -13 -16 -14 27 -15 34 0 51 -6 65 -21 10 -11 28 -26
39 -32 36 -19 -2 19 -53 53 -53 35 -52 35 -78 15z"/>
<path d="M2340 1050 c0 -5 5 -10 10 -10 6 0 10 5 10 10 0 6 -4 10 -10 10 -5 0
-10 -4 -10 -10z"/>
<path d="M4337 1029 c7 -7 15 -10 18 -7 3 3 -2 9 -12 12 -14 6 -15 5 -6 -5z"/>
<path d="M2360 1016 c0 -2 7 -7 16 -10 8 -3 12 -2 9 4 -6 10 -25 14 -25 6z"/>
<path d="M2700 990 c-33 -21 -206 -93 -310 -129 -61 -20 -107 -41 -103 -45 4
-4 1 -11 -7 -16 -10 -7 -11 -10 -2 -10 6 0 12 -7 12 -15 0 -10 6 -12 18 -8 15
6 15 5 3 -10 -11 -14 -11 -17 1 -17 8 0 22 -16 31 -35 24 -51 99 -75 112 -36
4 13 19 21 51 26 25 3 48 13 51 21 3 8 16 14 28 14 13 0 25 4 27 9 2 5 48 31
103 58 78 37 101 53 103 71 2 12 -1 22 -7 22 -6 0 -11 10 -11 23 0 12 -9 37
-20 55 -20 33 -50 41 -80 22z"/>
<path d="M4420 970 c8 -5 24 -10 34 -10 26 0 18 6 -19 14 -22 5 -26 4 -15 -4z"/>
<path d="M2330 869 c0 -5 5 -7 10 -4 6 3 10 8 10 11 0 2 -4 4 -10 4 -5 0 -10
-5 -10 -11z"/>
<path d="M1691 824 c0 -11 3 -14 6 -6 3 7 2 16 -1 19 -3 4 -6 -2 -5 -13z"/>
<path d="M4714 809 c-3 -6 -2 -15 4 -21 6 -6 11 -2 15 11 5 22 -7 29 -19 10z"/>
<path d="M1671 784 c0 -11 3 -14 6 -6 3 7 2 16 -1 19 -3 4 -6 -2 -5 -13z"/>
<path d="M4810 775 c0 -4 23 -33 51 -64 29 -30 69 -78 89 -106 30 -40 44 -51
69 -53 24 -2 30 1 25 10 -4 7 -9 28 -11 48 -2 19 -8 37 -14 38 -5 2 -16 17
-24 33 -9 16 -29 44 -46 64 -27 30 -33 33 -45 21 -19 -20 -18 -28 4 -22 12 4
18 0 19 -13 1 -16 -2 -17 -23 -7 -13 6 -24 14 -24 19 0 4 -8 7 -17 7 -9 0 -25
7 -35 17 -10 9 -18 13 -18 8z"/>
<path d="M4620 735 c0 -8 2 -15 4 -15 2 0 6 7 10 15 3 8 1 15 -4 15 -6 0 -10
-7 -10 -15z"/>
<path d="M400 724 c0 -8 5 -12 10 -9 6 4 8 11 5 16 -9 14 -15 11 -15 -7z"/>
<path d="M2302 721 c-11 -6 -10 -11 3 -25 21 -21 28 -16 18 12 -6 14 -12 19
-21 13z"/>
<path d="M4792 622 c37 -40 75 -83 84 -97 20 -30 29 -32 31 -5 1 11 -2 20 -8
20 -5 0 -9 6 -9 14 0 20 -70 107 -81 100 -5 -3 -8 0 -7 6 2 7 -4 14 -13 15 -9
2 -27 6 -40 10 -18 6 -6 -11 43 -63z"/>
<path d="M2295 670 c3 -5 8 -10 11 -10 2 0 4 5 4 10 0 6 -5 10 -11 10 -5 0 -7
-4 -4 -10z"/>
<path d="M1610 640 c0 -11 2 -20 4 -20 2 0 6 9 9 20 3 11 1 20 -4 20 -5 0 -9
-9 -9 -20z"/>
<path d="M1637 617 c-4 -15 -12 -27 -17 -27 -6 0 -10 -30 -10 -67 0 -65 9 -86
11 -27 1 16 8 50 16 77 8 26 13 53 11 59 -3 7 -8 1 -11 -15z"/>
<path d="M4470 615 c13 -14 26 -25 28 -25 3 0 -5 11 -18 25 -13 14 -26 25 -28
25 -3 0 5 -11 18 -25z"/>
<path d="M4587 633 c-10 -9 -9 -23 2 -23 5 0 11 7 15 15 5 15 -5 20 -17 8z"/>
<path d="M4660 613 c0 -16 109 -115 120 -108 5 3 8 0 5 -7 -3 -7 6 -26 19 -43
l24 -30 -1 27 c-1 16 -8 28 -14 28 -7 0 -13 9 -13 21 0 11 -21 43 -47 70 -47
50 -70 63 -59 32 6 -15 4 -15 -14 2 -11 10 -20 14 -20 8z"/>
<path d="M3310 585 c0 -9 6 -12 15 -9 9 4 15 0 15 -10 0 -19 26 -11 34 11 9
21 -3 31 -14 13 -6 -8 -10 -10 -10 -5 0 6 -9 11 -20 12 -11 1 -20 -4 -20 -12z"/>
<path d="M3391 574 c0 -11 3 -14 6 -6 3 7 2 16 -1 19 -3 4 -6 -2 -5 -13z"/>
<path d="M3396 532 c-4 -6 3 -16 14 -22 14 -8 20 -8 20 0 0 6 5 8 10 5 6 -3
10 -2 10 4 0 16 -18 22 -23 9 -4 -10 -8 -10 -15 1 -6 9 -12 10 -16 3z"/>
<path d="M1690 509 c0 -5 5 -7 10 -4 6 3 10 8 10 11 0 2 -4 4 -10 4 -5 0 -10
-5 -10 -11z"/>
<path d="M4635 484 c115 -103 135 -117 95 -66 -12 15 -25 27 -30 27 -4 0 -25
17 -45 38 -20 20 -41 37 -48 37 -7 0 6 -17 28 -36z"/>
<path d="M3040 500 c0 -5 5 -10 10 -10 6 0 10 5 10 10 0 6 -4 10 -10 10 -5 0
-10 -4 -10 -10z"/>
<path d="M3430 461 c0 -5 5 -13 10 -16 6 -3 10 -2 10 4 0 5 -4 13 -10 16 -5 3
-10 2 -10 -4z"/>
<path d="M3470 452 c6 -12 8 -28 4 -34 -4 -7 -3 -8 4 -4 7 4 12 2 12 -4 0 -6
5 -8 10 -5 6 3 10 16 9 28 0 21 -1 21 -9 2 -5 -11 -9 -15 -9 -9 -1 5 -8 19
-17 30 -14 18 -15 18 -4 -4z"/>
<path d="M2858 383 c-26 -4 -26 -5 -10 -24 9 -11 22 -38 27 -60 11 -45 31 -49
29 -7 -2 24 1 26 16 18 18 -10 32 -44 45 -108 4 -18 9 -32 11 -30 3 4 -25 201
-30 204 -6 6 -66 10 -88 7z m52 -28 c11 -13 10 -14 -4 -9 -9 3 -16 10 -16 15
0 13 6 11 20 -6z"/>
<path d="M2748 363 c7 -3 16 -2 19 1 4 3 -2 6 -13 5 -11 0 -14 -3 -6 -6z"/>
</g>
</svg>
